<?xml version="1.0" encoding="UTF-8" standalone="no"?>
<svg width="67px" height="67px" viewBox="0 0 67 67" version="1.1" xmlns="http://www.w3.org/2000/svg" xmlns:xlink="http://www.w3.org/1999/xlink" xmlns:sketch="http://www.bohemiancoding.com/sketch/ns">
    <!-- Generator: Sketch 3.0.1 (7597) - http://www.bohemiancoding.com/sketch -->
    <title>Oval 13 + kulio</title>
    <description>Created with Sketch.</description>
    <defs>
        <radialGradient cx="50%" cy="50%" fx="50%" fy="50%" r="52.849884%" id="radialGradient-1">
            <stop stop-color="#A3FFCD" offset="0%"></stop>
            <stop stop-color="#88FFD0" offset="68.5567464%"></stop>
            <stop stop-color="#3AC8B6" offset="100%"></stop>
        </radialGradient>
        <circle id="path-2" cx="32.2612305" cy="32.4212481" r="32"></circle>
        <path id="path-4" d="M5.86591799,0 C5.86591799,0 2.98377656,4.90472881 2.19783868,9.58075601 C1.26294948,15.1429877 0.771825748,21.1899809 0.771825748,21.1899809 C0.283871963,26.1391271 3.80876348,31.0752621 5.86591799,31.5601375 L5.86591799,31.5601375 L5.96554976,34.4532931 C6.06058571,37.212993 8.29065511,40.0760795 10.9996709,40.5307953 C10.9996709,40.5307953 9.39814251,41.0000016 19.5193243,41 C29.6405061,41 28.0389777,40.5307946 28.0389777,40.5307946 C30.7242101,39.9339831 33.0167225,37.2103094 33.1591378,34.4532931 L33.3085854,31.5601375 L33.3085854,31.5601375 C36.5348981,30.7820043 38.6335771,26.1524381 37.9844807,21.2357442 C37.9844807,21.2357442 37.0312515,13.5243024 36.2973908,9.58075601 C35.5635302,5.63720963 33.3085854,0 33.3085854,0 L5.86591799,0 Z"></path>
        <path id="path-6" d="M7.52092947,52.5067939 C9.46486152,55.359769 18.8805606,59.4906318 20.2085052,58.9186065 C20.884939,58.627226 16.4680494,55.7503512 13.7584885,49.5755265 C10.3515773,41.8115085 7.30847237,33.3681428 8.82612342,28.6012653 C10.3437744,23.8343878 16.7316073,19.2581844 21.0000002,19.2581853 C25.2683931,19.2581868 31.159694,23.6217179 32.9251787,27.7371672 C35.3304878,33.3440855 32.6422333,42.08348 28.9349985,48.8128261 C25.0939997,55.7849799 21.1570371,58.1559061 21.9158626,58.9186065 C22.6746881,59.6813069 33.3184587,54.928021 35.2391437,51.1801 C38.4783466,44.8592942 41.1204848,36.9236362 41.8350325,33.2728053 C43.9541096,22.445828 25.0460183,8.65981575e-07 20.2085057,0 C15.3709932,-8.33303041e-07 -1.44321316,22.2626826 0.0996299479,33.2728053 C0.754728998,37.9477597 3.18103309,46.1374273 7.52092947,52.5067939 Z"></path>
        <path id="path-8" d="M2.58585161,6.57046293 C-2.86884987,13.7611199 1.45729279,14.3955911 5.03106256,15.8760194 C8.60483215,17.3564482 15,5.0900338 15,5.0900338 L14.4357205,0.014275564 C14.4357205,0.014275564 8.04055297,-0.62019409 2.58585161,6.57046293 Z"></path>
    </defs>
    <g id="Page-1" stroke="none" stroke-width="1" fill="none" fill-rule="evenodd" sketch:type="MSPage">
        <g id="Oval-13-+-kulio" sketch:type="MSLayerGroup" transform="translate(1.000000, 1.000000)">
            <mask id="mask-3" sketch:name="Oval 13" fill="white">
                <use xlink:href="#path-2"></use>
            </mask>
            <g id="Oval-13">
                <use stroke="#676767" stroke-width="1" fill="url(#radialGradient-1)" sketch:type="MSShapeGroup" xlink:href="#path-2"></use>
                <use stroke="none" fill-opacity="0.28610409" fill="#FFFFFF" xlink:href="#path-2"></use>
            </g>
            <g id="kulio" mask="url(#mask-3)">
                <g transform="translate(11.261230, 3.421248)" id="head">
                    <g>
                        <g id="body" transform="translate(3.000000, 51.000000)">
                            <mask id="mask-5" sketch:name="body" fill="white">
                                <use xlink:href="#path-4"></use>
                            </mask>
                            <use stroke="#000000" stroke-linecap="round" stroke-linejoin="round" fill="#C8442F" sketch:type="MSShapeGroup" xlink:href="#path-4"></use>
                            <g id="zipper" mask="url(#mask-5)" stroke="#000000" sketch:type="MSShapeGroup">
                                <g transform="translate(17.000000, 6.000000)">
                                    <path d="M3,2.06768559 L3,32.9323144" id="zipper" stroke-width="7" stroke-linecap="round" stroke-dasharray="11" fill="none"></path>
                                    <rect id="zipper-tab" stroke-width="5" fill="#F7F7F7" fill-rule="evenodd" x="0" y="0" width="2" height="3" rx="8"></rect>
                                </g>
                            </g>
                            <text id="kulio" stroke="#000000" stroke-width="2" fill="#FFFFFF" sketch:type="MSTextLayer" mask="url(#mask-5)" font-family=".Lucida Grande UI" font-size="11.0747912" font-weight="normal" sketch:alignment="middle" letter-spacing="6">
                                <tspan x="13.3041008" y="22">k</tspan>
                                <tspan x="8.4628086" y="35">ul</tspan>
                                <tspan x="8.49795808" y="48">io</tspan>
                            </text>
                        </g>
                        <rect id="neck" fill="#FFF1DB" sketch:type="MSShapeGroup" x="17" y="55" width="9" height="3"></rect>
                        <g id="face" transform="translate(3.000000, 9.000000)" sketch:type="MSShapeGroup">
                            <path d="M8.375,42.2372261 C11.3673513,46.2167758 14.705682,46.9998525 19,46.9998525 C23.8824346,46.9998525 26.2410491,47.0979241 29.3416667,42.2372261 C32.2034855,37.7508818 36,28.4914177 36,23.7199479 C36,13.7788626 28.3888412,11 19,11 C9.61115879,11 2,13.7788626 2,23.7199479 C2,29.1141268 4.82505258,37.516125 8.375,42.2372261 Z" stroke="#000000" fill="#FFF1DB"></path>
                            <path d="M22,23 L22,25 L31,25 L31,22 L22,23 Z" id="eyebrow" fill="#000000"></path>
                            <rect id="eyebrow" fill="#000000" transform="translate(10.500000, 25.000000) scale(-1, 1) translate(-10.500000, -25.000000) " x="6" y="24" width="9" height="2"></rect>
                            <g id="eye" transform="translate(22.000000, 27.000000)" stroke="#000000" fill="#000000">
                                <rect id="iris" x="2" y="0" width="2" height="5" rx="8"></rect>
                            </g>
                            <g id="eye" transform="translate(12.000000, 29.500000) scale(-1, 1) translate(-12.000000, -29.500000) translate(9.000000, 27.000000)" stroke="#000000" fill="#000000">
                                <rect id="iris" x="2" y="0" width="2" height="5" rx="8"></rect>
                            </g>
                            <path d="M16,41.5 L21,41.5" id="mouth" stroke="#000000" stroke-linecap="round"></path>
                            <g id="beard" transform="translate(16.000000, 44.000000)" fill="#000000">
                                <circle id="Oval-3-copy" cx="4.5" cy="0.5" r="0.5"></circle>
                                <circle id="Oval-3-copy-2" cx="0.5" cy="0.5" r="0.5"></circle>
                                <circle id="Oval-3-copy-4" cx="2.5" cy="1.5" r="0.5"></circle>
                            </g>
                            <polygon id="nose" stroke="#000000" stroke-width="0.5" fill="#FFF1DB" points="17.9999226 31.6065261 19.293491 38 16.7063542 38 "></polygon>
                            <path d="M0.191140307,18.056872 C-0.784397092,21.5785797 2.29166598,30 2.29166598,30 L3.55198149,22.3222749 L6.35268243,18.056872 L13.2271302,15.7285558 L17.9999994,17.0867406 L23.538802,15.7285558 L31.5589911,17.0867403 L33.2394122,22.3222749 L33.9395867,30 C33.9395867,30 37.2483138,19.6815136 35.4799729,14.92891 C34.8677177,13.2834094 31.5589916,9.09952607 31.5589916,9.09952607 L27.3579401,7.67772512 C27.3579401,7.67772512 22.9016109,5.16923784 22.1766434,4.54976303 C19.9213217,2.6226211 16.6643542,0 16.6643542,0 C16.6643542,0 13.4203137,4.55250374 11.1138746,6.54028436 C9.40597555,8.0122194 4.25215666,10.521327 4.25215666,10.521327 C4.25215666,10.521327 0.896023809,15.512229 0.191140307,18.056872 Z" id="hair" fill="#000000"></path>
                        </g>
                        <g id="hoodie">
                            <g id="hood">
                                <mask id="mask-7" sketch:name="hoodie" fill="white">
                                    <use xlink:href="#path-6"></use>
                                </mask>
                                <use id="hoodie" stroke="#000000" fill="#C8442F" sketch:type="MSShapeGroup" xlink:href="#path-6"></use>
                                <g id="green-monster" mask="url(#mask-7)" stroke="#000000" sketch:type="MSShapeGroup">
                                    <g transform="translate(28.000000, 6.000000)">
                                        <path d="M14,40 C21.7319869,40 28,31.0456955 28,20 C28,8.95430446 21.7319869,0 14,0 C6.26801312,0 0,8.95430446 0,20 C0,31.0456955 6.26801312,40 14,40 Z" id="face" fill="#7ED321" fill-rule="evenodd"></path>
                                        <path d="M9.99971072,32.693964 C9.44758573,32.6174676 9,32.1055335 9,31.5570926 L9,28.6784776 C9,28.1270974 9.44131798,27.7730846 9.98201036,27.8869884 L21,30.2080692 L19.4262295,34 L9.99971072,32.693964 Z" id="grin" fill="#FFFFFF" fill-rule="evenodd"></path>
                                        <path d="M11,32 L12.9701493,28.5454545 L13.7761194,32 L17.4477612,26 L23,30.1818182" id="teeth" stroke-linecap="round" stroke-linejoin="bevel" fill="none"></path>
                                        <path d="M12,20 C12.5522848,20 13,19.3284272 13,18.5 C13,17.6715728 12.5522848,17 12,17 C11.4477152,17 11,17.6715728 11,18.5 C11,19.3284272 11.4477152,20 12,20 Z" id="right-eye" fill="#000000" fill-rule="evenodd" transform="translate(12.000000, 18.500000) rotate(34.000000) translate(-12.000000, -18.500000) "></path>
                                        <path d="M7,20 C7.55228478,20 8,19.3284272 8,18.5 C8,17.6715728 7.55228478,17 7,17 C6.44771522,17 6,17.6715728 6,18.5 C6,19.3284272 6.44771522,20 7,20 Z" id="left-eye" fill="#000000" fill-rule="evenodd" transform="translate(7.000000, 18.500000) rotate(-165.000000) translate(-7.000000, -18.500000) "></path>
                                    </g>
                                </g>
                                <g id="shark" mask="url(#mask-7)">
                                    <g transform="translate(-5.000000, 16.000000)">
                                        <g id="eye" transform="translate(8.000000, 0.000000)">
                                            <path d="M3.79590743,11.5611332 C4.70165874,11.5611332 6.71775165,12.5485832 7.26782125,11.5611336 C7.72397179,10.7422816 8,9.6738861 8,8.50517604 C8,5.92712447 5.45276176,2 3.79590743,2 C2.1390531,2 2,5.92712447 2,8.50517604 C2,11.0832276 2.1390531,11.5611332 3.79590743,11.5611332 Z" stroke="#000000" fill="#FFFFFF" sketch:type="MSShapeGroup" transform="translate(5.000000, 7.000000) scale(-1, 1) rotate(-22.000000) translate(-5.000000, -7.000000) "></path>
                                            <path d="M3.79704289,8 C4.11703027,8 4.59331803,7.60000001 4.73816511,7.2 C4.88301221,6.8 5.31755349,4.99999985 4.59331802,5 C3.86908256,5.00000018 3,6.95817218 3,7.4 C3,7.84182782 3.47705552,8 3.79704289,8 Z" id="iris" fill="#C8442F" sketch:type="MSShapeGroup"></path>
                                        </g>
                                        <g id="mouth" transform="translate(0.000000, 17.000000)">
                                            <mask id="mask-9" sketch:name="mouth" fill="white">
                                                <use xlink:href="#path-8"></use>
                                            </mask>
                                            <use stroke="#000000" sketch:type="MSShapeGroup" xlink:href="#path-8"></use>
                                            <path d="M6,11 C6,11 8.54117652,10.0447761 9.48235294,7 C10.4235294,3.95522388 14,3 14,3" id="tongue" stroke="#000000" stroke-linecap="square" sketch:type="MSShapeGroup" mask="url(#mask-9)"></path>
                                            <polygon id="tooth" fill="#FFFFFF" sketch:type="MSShapeGroup" mask="url(#mask-9)" points="7 5 8 8 6 8 ">
                                                <g transform="translate(7.000000, 6.500000) rotate(-217.000000) translate(-7.000000, -6.500000) "></g>
                                            </polygon>
                                            <polygon id="tooth-copy" fill="#FFFFFF" sketch:type="MSShapeGroup" mask="url(#mask-9)" points="9 3 10 6 8 6 ">
                                                <g transform="translate(9.000000, 4.500000) rotate(-209.000000) translate(-9.000000, -4.500000) "></g>
                                            </polygon>
                                            <polygon id="tooth-copy-2" fill="#FFFFFF" sketch:type="MSShapeGroup" mask="url(#mask-9)" points="12 2 13 5 11 5 ">
                                                <g transform="translate(12.000000, 3.500000) rotate(-199.000000) translate(-12.000000, -3.500000) "></g>
                                            </polygon>
                                            <polygon id="tooth-copy-3" fill="#FFFFFF" sketch:type="MSShapeGroup" mask="url(#mask-9)" points="12 8 13 10 11 10 ">
                                                <g transform="translate(12.000000, 9.000000) rotate(-164.000000) translate(-12.000000, -9.000000) "></g>
                                            </polygon>
                                            <polygon id="tooth-copy-4" fill="#FFFFFF" sketch:type="MSShapeGroup" mask="url(#mask-9)" points="10 10 11 12 9 12 ">
                                                <g transform="translate(10.000000, 11.000000) rotate(-166.000000) translate(-10.000000, -11.000000) "></g>
                                            </polygon>
                                            <polygon id="tooth-copy-5" fill="#FFFFFF" sketch:type="MSShapeGroup" mask="url(#mask-9)" points="9 11 10 13 8 13 ">
                                                <g transform="translate(9.000000, 12.000000) rotate(-158.000000) translate(-9.000000, -12.000000) "></g>
                                            </polygon>
                                        </g>
                                    </g>
                                </g>
                                <path d="M21,-1.90654206 L21,17.9065421" id="Line" stroke="#000000" stroke-linecap="square" sketch:type="MSShapeGroup" mask="url(#mask-7)"></path>
                            </g>
                        </g>
                    </g>
                </g>
            </g>
        </g>
    </g>
</svg>